<svg width="162" height="21" viewBox="0 0 162 21" fill="none" xmlns="http://www.w3.org/2000/svg">
<path d="M96.2812 18.8848V18H90.9082V18.8848H96.2812Z" fill="black"/>
<path d="M100.928 17.2383C100.588 17.2383 100.303 17.1719 100.072 17.0391C99.8457 16.9023 99.6641 16.7246 99.5273 16.5059C99.3867 16.291 99.2852 16.0488 99.2227 15.7793C99.1641 15.5059 99.1348 15.2305 99.1348 14.9531V14.707C99.1348 14.4336 99.1641 14.1621 99.2227 13.8926C99.2852 13.623 99.3867 13.3789 99.5273 13.1602C99.668 12.9453 99.8516 12.7715 100.078 12.6387C100.309 12.502 100.592 12.4336 100.928 12.4336C101.146 12.4336 101.35 12.4707 101.537 12.5449C101.729 12.6191 101.893 12.7207 102.029 12.8496C102.166 12.9785 102.273 13.1289 102.352 13.3008C102.434 13.4688 102.477 13.6484 102.48 13.8398H103.506C103.506 13.5195 103.441 13.2188 103.312 12.9375C103.184 12.6562 103.006 12.4121 102.779 12.2051C102.549 12.002 102.275 11.8418 101.959 11.7246C101.646 11.6035 101.303 11.543 100.928 11.543C100.447 11.543 100.027 11.6289 99.668 11.8008C99.3086 11.9727 99.0098 12.2031 98.7715 12.4922C98.5293 12.7852 98.3477 13.123 98.2266 13.5059C98.1055 13.8887 98.0449 14.2891 98.0449 14.707V14.9531C98.0449 15.375 98.1055 15.7773 98.2266 16.1602C98.3477 16.5391 98.5293 16.873 98.7715 17.1621C99.0098 17.4551 99.3086 17.6875 99.668 17.8594C100.027 18.0312 100.447 18.1172 100.928 18.1172C101.264 18.1172 101.586 18.0605 101.895 17.9473C102.203 17.8301 102.477 17.6738 102.715 17.4785C102.953 17.2871 103.143 17.0645 103.283 16.8105C103.428 16.5527 103.502 16.2832 103.506 16.002H102.48C102.477 16.1777 102.43 16.3418 102.34 16.4941C102.254 16.6426 102.139 16.7715 101.994 16.8809C101.85 16.9941 101.684 17.082 101.496 17.1445C101.312 17.207 101.123 17.2383 100.928 17.2383Z" fill="black"/>
<path d="M106.518 12.6035V9H105.434V18H106.518V13.3945C106.596 13.2695 106.684 13.1562 106.781 13.0547C106.883 12.9492 106.992 12.8574 107.109 12.7793C107.258 12.6777 107.42 12.5996 107.596 12.5449C107.771 12.4902 107.957 12.4629 108.152 12.4629C108.391 12.459 108.602 12.4922 108.785 12.5625C108.969 12.6289 109.121 12.7305 109.242 12.8672C109.355 12.9922 109.441 13.1504 109.5 13.3418C109.559 13.5293 109.588 13.748 109.588 13.998V18H110.672V14.0098C110.672 13.584 110.619 13.2168 110.514 12.9082C110.412 12.5957 110.266 12.3379 110.074 12.1348C109.883 11.9316 109.65 11.7832 109.377 11.6895C109.107 11.5918 108.807 11.543 108.475 11.543C108.221 11.5469 107.98 11.584 107.754 11.6543C107.531 11.7246 107.326 11.8281 107.139 11.9648C107.021 12.0469 106.91 12.1426 106.805 12.252C106.699 12.3574 106.604 12.4746 106.518 12.6035Z" fill="black"/>
<path d="M116.807 18H117.938V17.9062C117.867 17.7305 117.812 17.5254 117.773 17.291C117.734 17.0527 117.715 16.8281 117.715 16.6172V13.6699C117.715 13.3145 117.65 13.0039 117.521 12.7383C117.393 12.4727 117.217 12.25 116.994 12.0703C116.768 11.8945 116.5 11.7637 116.191 11.6777C115.883 11.5879 115.549 11.543 115.189 11.543C114.795 11.543 114.441 11.5977 114.129 11.707C113.82 11.8164 113.559 11.959 113.344 12.1348C113.125 12.3145 112.957 12.5156 112.84 12.7383C112.727 12.9609 112.668 13.1875 112.664 13.418H113.754C113.754 13.2852 113.785 13.1582 113.848 13.0371C113.914 12.9121 114.006 12.8047 114.123 12.7148C114.24 12.625 114.383 12.5527 114.551 12.498C114.723 12.4434 114.916 12.416 115.131 12.416C115.361 12.416 115.568 12.4453 115.752 12.5039C115.939 12.5625 116.098 12.6445 116.227 12.75C116.355 12.8594 116.455 12.9902 116.525 13.1426C116.596 13.2949 116.631 13.4668 116.631 13.6582V14.1562H115.447C115.006 14.1562 114.605 14.1992 114.246 14.2852C113.891 14.3711 113.586 14.5 113.332 14.6719C113.078 14.8477 112.881 15.0664 112.74 15.3281C112.604 15.5898 112.535 15.8945 112.535 16.2422C112.535 16.5078 112.586 16.7559 112.688 16.9863C112.793 17.2129 112.941 17.4082 113.133 17.5723C113.32 17.7402 113.549 17.873 113.818 17.9707C114.092 18.0684 114.396 18.1172 114.732 18.1172C114.939 18.1172 115.135 18.0957 115.318 18.0527C115.502 18.0098 115.676 17.9512 115.84 17.877C116 17.8027 116.146 17.7168 116.279 17.6191C116.416 17.5215 116.539 17.418 116.648 17.3086C116.66 17.4414 116.678 17.5703 116.701 17.6953C116.729 17.8164 116.764 17.918 116.807 18ZM114.891 17.1738C114.68 17.1738 114.494 17.1465 114.334 17.0918C114.174 17.0371 114.041 16.9609 113.936 16.8633C113.83 16.7695 113.75 16.6562 113.695 16.5234C113.645 16.3906 113.619 16.2461 113.619 16.0898C113.619 15.9258 113.648 15.7793 113.707 15.6504C113.77 15.5215 113.859 15.4102 113.977 15.3164C114.141 15.1836 114.361 15.0859 114.639 15.0234C114.92 14.957 115.248 14.9238 115.623 14.9238H116.631V16.207C116.568 16.332 116.482 16.4531 116.373 16.5703C116.264 16.6836 116.135 16.7852 115.986 16.875C115.834 16.9648 115.666 17.0371 115.482 17.0918C115.299 17.1465 115.102 17.1738 114.891 17.1738Z" fill="black"/>
<path d="M120.018 9V9.94336H122.174V17.0625H120.018V18H125.326V17.0625H123.258V9H120.018Z" fill="black"/>
<path d="M127.225 9V9.94336H129.381V17.0625H127.225V18H132.533V17.0625H130.465V9H127.225Z" fill="black"/>
<path d="M137.062 18.1172C137.68 18.1172 138.197 17.9941 138.615 17.748C139.037 17.498 139.354 17.2129 139.564 16.8926L138.902 16.377C138.703 16.6348 138.453 16.8418 138.152 16.998C137.852 17.1543 137.508 17.2324 137.121 17.2324C136.828 17.2324 136.561 17.1777 136.318 17.0684C136.076 16.959 135.869 16.8086 135.697 16.6172C135.529 16.4375 135.396 16.2305 135.299 15.9961C135.205 15.7617 135.145 15.4902 135.117 15.1816V15.1406H139.646V14.6543C139.646 14.2129 139.59 13.8027 139.477 13.4238C139.367 13.0449 139.199 12.7148 138.973 12.4336C138.746 12.1562 138.461 11.9395 138.117 11.7832C137.777 11.623 137.379 11.543 136.922 11.543C136.559 11.543 136.203 11.6172 135.855 11.7656C135.512 11.9141 135.205 12.127 134.936 12.4043C134.662 12.6855 134.443 13.0293 134.279 13.4355C134.115 13.8379 134.033 14.2949 134.033 14.8066V15.0527C134.033 15.4941 134.107 15.9023 134.256 16.2773C134.404 16.6523 134.611 16.9766 134.877 17.25C135.143 17.5234 135.461 17.7363 135.832 17.8887C136.207 18.041 136.617 18.1172 137.062 18.1172ZM136.922 12.4336C137.199 12.4336 137.438 12.4844 137.637 12.5859C137.84 12.6875 138.008 12.8203 138.141 12.9844C138.273 13.1484 138.377 13.3438 138.451 13.5703C138.525 13.793 138.562 14.002 138.562 14.1973V14.25H135.152C135.195 13.957 135.27 13.6992 135.375 13.4766C135.484 13.25 135.617 13.0586 135.773 12.9023C135.93 12.75 136.105 12.6348 136.301 12.5566C136.496 12.4746 136.703 12.4336 136.922 12.4336Z" fill="black"/>
<path d="M141.469 18H142.553V13.4531C142.627 13.3164 142.713 13.1914 142.811 13.0781C142.912 12.9648 143.021 12.8652 143.139 12.7793C143.283 12.6816 143.441 12.6055 143.613 12.5508C143.785 12.4922 143.971 12.4629 144.17 12.4629C144.4 12.4629 144.604 12.4902 144.779 12.5449C144.959 12.5996 145.111 12.6875 145.236 12.8086C145.357 12.9297 145.449 13.0879 145.512 13.2832C145.574 13.4785 145.605 13.7168 145.605 13.998V18H146.689V13.9746C146.689 13.5527 146.637 13.1895 146.531 12.8848C146.43 12.5762 146.283 12.3223 146.092 12.123C145.9 11.9238 145.668 11.7773 145.395 11.6836C145.125 11.5898 144.824 11.543 144.492 11.543C144.246 11.5469 144.012 11.584 143.789 11.6543C143.57 11.7207 143.367 11.8164 143.18 11.9414C143.055 12.0234 142.936 12.1211 142.822 12.2344C142.713 12.3438 142.611 12.4648 142.518 12.5977L142.441 11.6602H141.469V18Z" fill="black"/>
<path d="M148.477 14.7773V14.9004C148.477 15.3535 148.535 15.7773 148.652 16.1719C148.77 16.5625 148.938 16.9023 149.156 17.1914C149.371 17.4805 149.635 17.707 149.947 17.8711C150.26 18.0352 150.609 18.1172 150.996 18.1172C151.227 18.1172 151.441 18.0918 151.641 18.041C151.84 17.9941 152.021 17.9258 152.186 17.8359C152.291 17.7773 152.389 17.709 152.479 17.6309C152.572 17.5527 152.66 17.4668 152.742 17.373V17.918C152.742 18.1914 152.703 18.4336 152.625 18.6445C152.547 18.8555 152.436 19.0312 152.291 19.1719C152.143 19.3164 151.965 19.4258 151.758 19.5C151.551 19.5742 151.318 19.6113 151.061 19.6113C150.916 19.6113 150.771 19.5957 150.627 19.5645C150.482 19.5371 150.338 19.4902 150.193 19.4238C150.049 19.3574 149.906 19.2676 149.766 19.1543C149.625 19.0449 149.488 18.9102 149.355 18.75L148.793 19.4004C148.938 19.6074 149.109 19.7812 149.309 19.9219C149.512 20.0625 149.723 20.1738 149.941 20.2559C150.156 20.3418 150.369 20.4023 150.58 20.4375C150.791 20.4766 150.979 20.4961 151.143 20.4961C151.541 20.4961 151.904 20.4375 152.232 20.3203C152.561 20.2031 152.844 20.0312 153.082 19.8047C153.316 19.5781 153.498 19.3027 153.627 18.9785C153.76 18.6543 153.826 18.2832 153.826 17.8652V11.6602H152.842L152.789 12.3516C152.715 12.2578 152.635 12.1719 152.549 12.0938C152.467 12.0156 152.379 11.9473 152.285 11.8887C152.113 11.7754 151.92 11.6895 151.705 11.6309C151.494 11.5723 151.262 11.543 151.008 11.543C150.613 11.543 150.26 11.623 149.947 11.7832C149.635 11.9434 149.369 12.166 149.15 12.4512C148.932 12.7363 148.764 13.0781 148.646 13.4766C148.533 13.8711 148.477 14.3047 148.477 14.7773ZM149.561 14.9004V14.7773C149.561 14.4688 149.592 14.1758 149.654 13.8984C149.721 13.6172 149.824 13.3691 149.965 13.1543C150.102 12.9434 150.277 12.7754 150.492 12.6504C150.711 12.5254 150.973 12.4629 151.277 12.4629C151.457 12.4629 151.621 12.4863 151.77 12.5332C151.918 12.5762 152.053 12.6367 152.174 12.7148C152.295 12.7969 152.402 12.8926 152.496 13.002C152.59 13.1113 152.672 13.2324 152.742 13.3652V16.2715C152.672 16.4082 152.59 16.5332 152.496 16.6465C152.402 16.7598 152.297 16.8574 152.18 16.9395C152.059 17.0215 151.922 17.0859 151.77 17.1328C151.621 17.1758 151.453 17.1973 151.266 17.1973C150.965 17.1973 150.707 17.1367 150.492 17.0156C150.277 16.8906 150.102 16.7227 149.965 16.5117C149.824 16.3008 149.721 16.0566 149.654 15.7793C149.592 15.502 149.561 15.209 149.561 14.9004Z" fill="black"/>
<path d="M158.684 18.1172C159.301 18.1172 159.818 17.9941 160.236 17.748C160.658 17.498 160.975 17.2129 161.186 16.8926L160.523 16.377C160.324 16.6348 160.074 16.8418 159.773 16.998C159.473 17.1543 159.129 17.2324 158.742 17.2324C158.449 17.2324 158.182 17.1777 157.939 17.0684C157.697 16.959 157.49 16.8086 157.318 16.6172C157.15 16.4375 157.018 16.2305 156.92 15.9961C156.826 15.7617 156.766 15.4902 156.738 15.1816V15.1406H161.268V14.6543C161.268 14.2129 161.211 13.8027 161.098 13.4238C160.988 13.0449 160.82 12.7148 160.594 12.4336C160.367 12.1562 160.082 11.9395 159.738 11.7832C159.398 11.623 159 11.543 158.543 11.543C158.18 11.543 157.824 11.6172 157.477 11.7656C157.133 11.9141 156.826 12.127 156.557 12.4043C156.283 12.6855 156.064 13.0293 155.9 13.4355C155.736 13.8379 155.654 14.2949 155.654 14.8066V15.0527C155.654 15.4941 155.729 15.9023 155.877 16.2773C156.025 16.6523 156.232 16.9766 156.498 17.25C156.764 17.5234 157.082 17.7363 157.453 17.8887C157.828 18.041 158.238 18.1172 158.684 18.1172ZM158.543 12.4336C158.82 12.4336 159.059 12.4844 159.258 12.5859C159.461 12.6875 159.629 12.8203 159.762 12.9844C159.895 13.1484 159.998 13.3438 160.072 13.5703C160.146 13.793 160.184 14.002 160.184 14.1973V14.25H156.773C156.816 13.957 156.891 13.6992 156.996 13.4766C157.105 13.25 157.238 13.0586 157.395 12.9023C157.551 12.75 157.727 12.6348 157.922 12.5566C158.117 12.4746 158.324 12.4336 158.543 12.4336Z" fill="black"/>
<path d="M71.7208 19V0.186523H66.0231V19H71.7208Z" fill="#1F13FF"/>
<path d="M85.1285 19V5.15081H90.1492V0.186523H74.382V5.15081H79.4309V19H85.1285Z" fill="#1F13FF"/>
<path d="M8.95678 19C14.8519 19 19.252 15.5871 19.252 9.57918C19.252 3.57127 14.8519 0.186523 8.92858 0.186523H0.523132V19H8.95678ZM8.92858 14.0358H6.22078V5.15081H8.95678C12.003 5.15081 13.4698 7.04063 13.4698 9.57918C13.4698 11.9485 11.7774 14.0358 8.92858 14.0358Z" fill="#0F0B0B"/>
<path d="M34.7684 19V10.7638C34.7684 6.22265 31.4683 5.03799 28.0836 5.03799C26.0245 5.03799 23.486 5.63032 21.6525 7.09704L23.3731 10.2279C24.445 9.40995 25.8835 8.90224 27.1528 8.90224C28.8169 8.90224 29.6913 9.6356 29.6913 10.5946V12.0049C28.958 11.0741 27.3502 10.51 25.5732 10.51C23.5424 10.51 20.891 11.469 20.891 14.8537C20.891 17.9564 23.5424 19.3385 25.5732 19.3385C27.2656 19.3385 28.9297 18.6616 29.6913 17.7026V19H34.7684ZM27.6887 16.0384C26.8425 16.0384 25.9117 15.7845 25.9117 14.9384C25.9117 14.0922 26.8425 13.8101 27.6887 13.8101C28.4784 13.8101 29.3528 14.064 29.6913 14.5435V15.305C29.3528 15.7845 28.4784 16.0384 27.6887 16.0384Z" fill="#0F0B0B"/>
<path d="M43.2972 19V10.651C43.8613 9.97407 45.2434 9.69201 46.3152 9.69201C46.7947 9.69201 47.2178 9.74842 47.4717 9.83304V4.98158C45.9204 4.98158 44.1434 5.88417 43.2972 6.87139V5.37646H38.2201V19H43.2972Z" fill="#0F0B0B"/>
<path d="M56.5097 19.3385C58.5405 19.3385 60.9663 18.8026 62.3202 17.6462L60.2329 14.5153C59.556 15.1076 57.8636 15.4743 57.102 15.4743C55.4379 15.4743 54.4506 14.6281 54.1686 13.7537H63.4202V12.7101C63.4202 7.91502 60.3457 5.03799 56.3405 5.03799C51.9403 5.03799 48.9222 8.22529 48.9222 12.1742C48.9222 16.6589 52.2506 19.3385 56.5097 19.3385ZM58.597 10.5382H54.1122C54.2814 9.91766 54.7891 8.90224 56.3405 8.90224C57.9764 8.90224 58.4559 9.94586 58.597 10.5382Z" fill="#0F0B0B"/>
</svg>
