<svg width="95" height="21" viewBox="0 0 95 21" fill="none" xmlns="http://www.w3.org/2000/svg">
<path d="M0.54 0.399999H8.52C11.208 0.399999 13.4667 1.34267 15.296 3.228C17.1253 5.11333 18.04 7.43733 18.04 10.2C18.04 12.9813 17.1253 15.3147 15.296 17.2C13.4853 19.0667 11.2267 20 8.52 20H0.54V0.399999ZM5.692 15.156H8.52C9.864 15.156 10.9747 14.708 11.852 13.812C12.7107 12.8973 13.14 11.6933 13.14 10.2C13.14 8.688 12.7107 7.49333 11.852 6.616C10.9933 5.70133 9.88267 5.244 8.52 5.244H5.692V15.156ZM30.4622 7.288V6H35.1102V20H30.4622V18.712C29.5102 19.832 28.1849 20.392 26.4862 20.392C24.6009 20.392 23.0329 19.692 21.7822 18.292C20.5316 16.8733 19.9062 15.1093 19.9062 13C19.9062 10.872 20.5316 9.11733 21.7822 7.736C23.0329 6.31733 24.6009 5.608 26.4862 5.608C28.1849 5.608 29.5102 6.168 30.4622 7.288ZM25.3942 15.212C25.9169 15.772 26.6262 16.052 27.5222 16.052C28.4182 16.052 29.1276 15.772 29.6502 15.212C30.1916 14.6333 30.4622 13.896 30.4622 13C30.4622 12.104 30.1916 11.3667 29.6502 10.788C29.1276 10.228 28.4182 9.948 27.5222 9.948C26.6262 9.948 25.9169 10.228 25.3942 10.788C24.8529 11.3667 24.5822 12.104 24.5822 13C24.5822 13.896 24.8529 14.6333 25.3942 15.212ZM42.8628 6V8.604C43.1241 7.708 43.6374 7.008 44.4028 6.504C45.1868 5.98133 46.0734 5.72 47.0628 5.72V10.872C45.9988 10.704 45.0281 10.9 44.1508 11.46C43.2921 12.02 42.8628 12.9347 42.8628 14.204V20H38.2148V6H42.8628ZM62.6827 14.708H53.0227C53.4894 15.8467 54.5347 16.416 56.1587 16.416C57.148 16.416 57.9974 16.0893 58.7067 15.436L62.0667 17.788C60.704 19.524 58.6974 20.392 56.0467 20.392C53.676 20.392 51.772 19.7013 50.3347 18.32C48.916 16.92 48.2067 15.156 48.2067 13.028C48.2067 10.9187 48.9067 9.15467 50.3067 7.736C51.7067 6.31733 53.4894 5.608 55.6547 5.608C57.7454 5.608 59.472 6.308 60.8347 7.708C62.1974 9.08933 62.8787 10.844 62.8787 12.972C62.8787 13.6253 62.8134 14.204 62.6827 14.708ZM52.9667 11.488H58.3427C57.988 10.1813 57.1107 9.528 55.7107 9.528C54.2734 9.528 53.3587 10.1813 52.9667 11.488Z" fill="#1E12FF"/>
<path d="M72.2345 20V0.399999H77.2465V20H72.2345ZM79.4783 0.399999H94.1783V5.244H89.3343V20H84.3223V5.244H79.4783V0.399999Z" fill="#FF227A"/>
</svg>
